<?xml version="1.0" encoding="UTF-8" standalone="no"?><!DOCTYPE svg PUBLIC "-//W3C//DTD SVG 1.1//EN" "http://www.w3.org/Graphics/SVG/1.1/DTD/svg11.dtd"><svg width="100%" height="100%" viewBox="0 0 512 512" version="1.1" xmlns="http://www.w3.org/2000/svg" xmlns:xlink="http://www.w3.org/1999/xlink" xml:space="preserve" xmlns:serif="http://www.serif.com/" style="fill-rule:evenodd;clip-rule:evenodd;stroke-linejoin:round;stroke-miterlimit:1.41421;"><g id="logo"><path id="Path_1" d="M283.877,110.58c-47.535,6.451 -93.03,23.435 -133.164,49.713c16.625,25.997 105.356,124.319 109.986,124.47c15.191,-13.455 47.733,-40.293 60.124,-50.778c11.249,-9.524 20.602,-20.33 28.42,-27.431c-11.329,-11.319 -20.908,-24.263 -28.42,-38.406c27.015,-32.448 63.102,-56.134 90.947,-87.789c36.143,-1.971 57.746,10.09 79.576,21.943c5.215,16.313 17.803,34.992 14.211,60.348c-3.716,26.271 -75.202,82.981 -90.949,96.012c-15.181,0.622 -38.246,-27.242 -41.103,-30.844c-31.689,23.681 -61.356,49.955 -88.695,78.548c20.048,21.989 52.353,60.028 74.23,82.188c13.201,13.418 36.275,43.234 21.688,53.201c-15.927,10.882 -94.625,-90.457 -116.927,-114.445c-19.085,15.379 -54.691,51.126 -80.151,73.437c-22.121,19.415 -45.677,51.645 -61.811,17.03c-4.478,-9.618 78.559,-74.494 119.369,-115.22c-16.671,-16.775 -101.226,-103.536 -119.369,-123.452c-21.224,13.764 -41.194,29.37 -59.679,46.638c-21.952,19.275 -34.248,32.382 -57.341,52.156c44.733,-96.568 140.038,-171.619 259.162,-208.469c11.993,10.408 19.186,25.286 19.896,41.15Z" style="fill:#0c7235;"/></g></svg>